<svg width="163" height="58" viewBox="0 0 163 58" fill="none" xmlns="http://www.w3.org/2000/svg">
<rect width="163" height="58" fill="#19191C"/>
<path d="M52.9176 26.6562H49.1847C49.1165 26.1733 48.9773 25.7443 48.767 25.3693C48.5568 24.9886 48.2869 24.6648 47.9574 24.3977C47.6278 24.1307 47.2472 23.9261 46.8153 23.7841C46.3892 23.642 45.9261 23.571 45.4261 23.571C44.5227 23.571 43.7358 23.7955 43.0653 24.2443C42.3949 24.6875 41.875 25.3352 41.5057 26.1875C41.1364 27.0341 40.9517 28.0625 40.9517 29.2727C40.9517 30.517 41.1364 31.5625 41.5057 32.4091C41.8807 33.2557 42.4034 33.8949 43.0739 34.3267C43.7443 34.7585 44.5199 34.9744 45.4006 34.9744C45.8949 34.9744 46.3523 34.9091 46.7727 34.7784C47.1989 34.6477 47.5767 34.4574 47.9062 34.2074C48.2358 33.9517 48.5085 33.642 48.7244 33.2784C48.946 32.9148 49.0994 32.5 49.1847 32.0341L52.9176 32.0511C52.821 32.8523 52.5795 33.625 52.1932 34.3693C51.8125 35.108 51.2983 35.7699 50.6506 36.3551C50.0085 36.9347 49.2415 37.3949 48.3494 37.7358C47.4631 38.071 46.4602 38.2386 45.3409 38.2386C43.7841 38.2386 42.392 37.8864 41.1648 37.1818C39.9432 36.4773 38.9773 35.4574 38.267 34.1222C37.5625 32.7869 37.2102 31.1705 37.2102 29.2727C37.2102 27.3693 37.5682 25.75 38.2841 24.4148C39 23.0795 39.9716 22.0625 41.1989 21.3636C42.4261 20.6591 43.8068 20.3068 45.3409 20.3068C46.3523 20.3068 47.2898 20.4489 48.1534 20.733C49.0227 21.017 49.7926 21.4318 50.4631 21.9773C51.1335 22.517 51.679 23.179 52.0994 23.9631C52.5256 24.7472 52.7983 25.6449 52.9176 26.6562ZM59.1264 30.4318V38H55.4957V20.5455H59.0241V27.2188H59.1776C59.473 26.446 59.9503 25.8409 60.6094 25.4034C61.2685 24.9602 62.0952 24.7386 63.0895 24.7386C63.9986 24.7386 64.7912 24.9375 65.4673 25.3352C66.1491 25.7273 66.6776 26.2926 67.0526 27.0312C67.4332 27.7642 67.6207 28.642 67.6151 29.6648V38H63.9844V30.3125C63.9901 29.5057 63.7855 28.8778 63.3707 28.429C62.9616 27.9801 62.3878 27.7557 61.6491 27.7557C61.1548 27.7557 60.7173 27.8608 60.3366 28.071C59.9616 28.2812 59.6662 28.5881 59.4503 28.9915C59.2401 29.3892 59.1321 29.8693 59.1264 30.4318ZM76.3871 38.2557C75.0632 38.2557 73.9183 37.9744 72.9524 37.4119C71.9922 36.8437 71.2507 36.054 70.728 35.0426C70.2053 34.0256 69.9439 32.8466 69.9439 31.5057C69.9439 30.1534 70.2053 28.9716 70.728 27.9602C71.2507 26.9432 71.9922 26.1534 72.9524 25.5909C73.9183 25.0227 75.0632 24.7386 76.3871 24.7386C77.7109 24.7386 78.853 25.0227 79.8132 25.5909C80.7791 26.1534 81.5234 26.9432 82.0462 27.9602C82.5689 28.9716 82.8303 30.1534 82.8303 31.5057C82.8303 32.8466 82.5689 34.0256 82.0462 35.0426C81.5234 36.054 80.7791 36.8437 79.8132 37.4119C78.853 37.9744 77.7109 38.2557 76.3871 38.2557ZM76.4041 35.4432C77.0064 35.4432 77.5092 35.2727 77.9126 34.9318C78.3161 34.5852 78.62 34.1136 78.8246 33.517C79.0348 32.9205 79.1399 32.2415 79.1399 31.4801C79.1399 30.7188 79.0348 30.0398 78.8246 29.4432C78.62 28.8466 78.3161 28.375 77.9126 28.0284C77.5092 27.6818 77.0064 27.5085 76.4041 27.5085C75.7962 27.5085 75.2848 27.6818 74.87 28.0284C74.4609 28.375 74.1513 28.8466 73.9411 29.4432C73.7365 30.0398 73.6342 30.7188 73.6342 31.4801C73.6342 32.2415 73.7365 32.9205 73.9411 33.517C74.1513 34.1136 74.4609 34.5852 74.87 34.9318C75.2848 35.2727 75.7962 35.4432 76.4041 35.4432ZM91.1058 38.2557C89.782 38.2557 88.6371 37.9744 87.6712 37.4119C86.7109 36.8437 85.9695 36.054 85.4467 35.0426C84.924 34.0256 84.6626 32.8466 84.6626 31.5057C84.6626 30.1534 84.924 28.9716 85.4467 27.9602C85.9695 26.9432 86.7109 26.1534 87.6712 25.5909C88.6371 25.0227 89.782 24.7386 91.1058 24.7386C92.4297 24.7386 93.5717 25.0227 94.532 25.5909C95.4979 26.1534 96.2422 26.9432 96.7649 27.9602C97.2876 28.9716 97.549 30.1534 97.549 31.5057C97.549 32.8466 97.2876 34.0256 96.7649 35.0426C96.2422 36.054 95.4979 36.8437 94.532 37.4119C93.5717 37.9744 92.4297 38.2557 91.1058 38.2557ZM91.1229 35.4432C91.7251 35.4432 92.228 35.2727 92.6314 34.9318C93.0348 34.5852 93.3388 34.1136 93.5433 33.517C93.7536 32.9205 93.8587 32.2415 93.8587 31.4801C93.8587 30.7188 93.7536 30.0398 93.5433 29.4432C93.3388 28.8466 93.0348 28.375 92.6314 28.0284C92.228 27.6818 91.7251 27.5085 91.1229 27.5085C90.5149 27.5085 90.0036 27.6818 89.5888 28.0284C89.1797 28.375 88.87 28.8466 88.6598 29.4432C88.4553 30.0398 88.353 30.7188 88.353 31.4801C88.353 32.2415 88.4553 32.9205 88.6598 33.517C88.87 34.1136 89.1797 34.5852 89.5888 34.9318C90.0036 35.2727 90.5149 35.4432 91.1229 35.4432ZM110.802 28.642L107.478 28.8466C107.421 28.5625 107.299 28.3068 107.112 28.0795C106.924 27.8466 106.677 27.6619 106.37 27.5256C106.069 27.3835 105.708 27.3125 105.288 27.3125C104.725 27.3125 104.251 27.4318 103.864 27.6705C103.478 27.9034 103.285 28.2159 103.285 28.608C103.285 28.9205 103.41 29.1847 103.66 29.4006C103.91 29.6165 104.339 29.7898 104.947 29.9205L107.316 30.3977C108.589 30.6591 109.538 31.0795 110.163 31.6591C110.788 32.2386 111.1 33 111.1 33.9432C111.1 34.8011 110.847 35.554 110.342 36.2017C109.842 36.8494 109.154 37.3551 108.279 37.7188C107.41 38.0767 106.407 38.2557 105.271 38.2557C103.538 38.2557 102.157 37.8949 101.129 37.1733C100.106 36.446 99.5064 35.4574 99.3303 34.2074L102.901 34.0199C103.009 34.5483 103.271 34.9517 103.685 35.2301C104.1 35.5028 104.631 35.6392 105.279 35.6392C105.915 35.6392 106.427 35.517 106.813 35.2727C107.205 35.0227 107.404 34.7017 107.41 34.3097C107.404 33.9801 107.265 33.7102 106.992 33.5C106.719 33.2841 106.299 33.1193 105.731 33.0057L103.464 32.554C102.185 32.2983 101.234 31.8551 100.609 31.2244C99.9893 30.5937 99.6797 29.7898 99.6797 28.8125C99.6797 27.9716 99.907 27.2472 100.362 26.6392C100.822 26.0312 101.467 25.5625 102.296 25.233C103.131 24.9034 104.109 24.7386 105.228 24.7386C106.881 24.7386 108.183 25.0881 109.131 25.7869C110.086 26.4858 110.643 27.4375 110.802 28.642ZM119.352 38.2557C118.006 38.2557 116.847 37.983 115.875 37.4375C114.909 36.8864 114.165 36.108 113.642 35.1023C113.119 34.0909 112.858 32.8949 112.858 31.5142C112.858 30.1676 113.119 28.9858 113.642 27.9688C114.165 26.9517 114.901 26.1591 115.849 25.5909C116.804 25.0227 117.923 24.7386 119.207 24.7386C120.071 24.7386 120.875 24.8778 121.619 25.1562C122.369 25.429 123.023 25.8409 123.58 26.392C124.142 26.9432 124.58 27.6364 124.892 28.4716C125.205 29.3011 125.361 30.2727 125.361 31.3864V32.3835H114.307V30.1335H121.943C121.943 29.6108 121.83 29.1477 121.602 28.7443C121.375 28.3409 121.06 28.0256 120.656 27.7983C120.259 27.5653 119.795 27.4489 119.267 27.4489C118.716 27.4489 118.227 27.5767 117.801 27.8324C117.381 28.0824 117.051 28.4205 116.812 28.8466C116.574 29.267 116.452 29.7358 116.446 30.2528V32.392C116.446 33.0398 116.565 33.5994 116.804 34.071C117.048 34.5426 117.392 34.9062 117.835 35.1619C118.278 35.4176 118.804 35.5455 119.412 35.5455C119.815 35.5455 120.185 35.4886 120.52 35.375C120.855 35.2614 121.142 35.0909 121.381 34.8636C121.619 34.6364 121.801 34.358 121.926 34.0284L125.284 34.25C125.114 35.0568 124.764 35.7614 124.236 36.3636C123.713 36.9602 123.037 37.4261 122.207 37.7614C121.384 38.0909 120.432 38.2557 119.352 38.2557Z" fill="#FBFBFC"/>
</svg>
